<?xml version="1.0" encoding="utf-8"?>
<!-- Generator: Adobe Illustrator 16.0.0, SVG Export Plug-In . SVG Version: 6.00 Build 0)  -->
<!DOCTYPE svg PUBLIC "-//W3C//DTD SVG 1.1//EN" "http://www.w3.org/Graphics/SVG/1.1/DTD/svg11.dtd">
<svg version="1.1" id="Layer_1" xmlns="http://www.w3.org/2000/svg" xmlns:xlink="http://www.w3.org/1999/xlink" x="0px" y="0px"
	 width="528.283px" height="234.082px" viewBox="0 0 528.283 234.082" enable-background="new 0 0 528.283 234.082"
	 xml:space="preserve">
<pattern  x="-336.662" y="-198.336" width="39.115" height="18.736" patternUnits="userSpaceOnUse" id="Unnamed_Pattern" viewBox="0 -18.736 39.115 18.736" overflow="visible">
	<g>
		<polygon fill="none" points="0,-18.736 39.115,-18.736 39.115,0 0,0 		"/>
		<polygon fill="#10153C" points="39.115,-9.368 0,-9.368 0,0 39.115,0 		"/>
		<polygon fill="#60B746" points="39.115,-18.736 0,-18.736 0,-9.368 39.115,-9.368 		"/>
	</g>
</pattern>
<pattern  x="-336.662" y="-198.336" width="39.115" height="18.736" patternUnits="userSpaceOnUse" id="Unnamed_Pattern_2" viewBox="0 -18.736 39.115 18.736" overflow="visible">
	<g>
		<polygon fill="none" points="0,-18.736 39.115,-18.736 39.115,0 0,0 		"/>
		<polygon fill="#10153C" points="39.115,-9.368 0,-9.368 0,0 39.115,0 		"/>
		<polygon fill="#60B746" points="39.115,-18.736 0,-18.736 0,-9.368 39.115,-9.368 		"/>
	</g>
</pattern>
<pattern  x="-336.662" y="-198.336" width="39.115" height="18.736" patternUnits="userSpaceOnUse" id="Unnamed_Pattern_3" viewBox="0 -18.736 39.115 18.736" overflow="visible">
	<g>
		<polygon fill="none" points="0,-18.736 39.115,-18.736 39.115,0 0,0 		"/>
		<polygon fill="#10153C" points="39.115,-9.368 0,-9.368 0,0 39.115,0 		"/>
		<polygon fill="#60B746" points="39.115,-18.736 0,-18.736 0,-9.368 39.115,-9.368 		"/>
	</g>
</pattern>
<pattern  x="-336.662" y="-198.336" width="39.115" height="18.736" patternUnits="userSpaceOnUse" id="Unnamed_Pattern_4" viewBox="0 -18.736 39.115 18.736" overflow="visible">
	<g>
		<polygon fill="none" points="0,-18.736 39.115,-18.736 39.115,0 0,0 		"/>
		<polygon fill="#10153C" points="39.115,-9.368 0,-9.368 0,0 39.115,0 		"/>
		<polygon fill="#60B746" points="39.115,-18.736 0,-18.736 0,-9.368 39.115,-9.368 		"/>
	</g>
</pattern>
<pattern  x="-336.662" y="-198.336" width="39.115" height="18.736" patternUnits="userSpaceOnUse" id="Unnamed_Pattern_5" viewBox="0 -18.736 39.115 18.736" overflow="visible">
	<g>
		<polygon fill="none" points="0,-18.736 39.115,-18.736 39.115,0 0,0 		"/>
		<polygon fill="#10153C" points="39.115,-9.368 0,-9.368 0,0 39.115,0 		"/>
		<polygon fill="#60B746" points="39.115,-18.736 0,-18.736 0,-9.368 39.115,-9.368 		"/>
	</g>
</pattern>
<pattern  x="-336.662" y="-198.336" width="39.115" height="18.736" patternUnits="userSpaceOnUse" id="Unnamed_Pattern_6" viewBox="0 -18.736 39.115 18.736" overflow="visible">
	<g>
		<polygon fill="none" points="0,-18.736 39.115,-18.736 39.115,0 0,0 		"/>
		<polygon fill="#10153C" points="39.115,-9.368 0,-9.368 0,0 39.115,0 		"/>
		<polygon fill="#60B746" points="39.115,-18.736 0,-18.736 0,-9.368 39.115,-9.368 		"/>
	</g>
</pattern>
<pattern  x="-336.662" y="-198.336" width="39.115" height="18.736" patternUnits="userSpaceOnUse" id="Unnamed_Pattern_7" viewBox="0 -18.736 39.115 18.736" overflow="visible">
	<g>
		<polygon fill="none" points="0,-18.736 39.115,-18.736 39.115,0 0,0 		"/>
		<polygon fill="#10153C" points="39.115,-9.368 0,-9.368 0,0 39.115,0 		"/>
		<polygon fill="#60B746" points="39.115,-18.736 0,-18.736 0,-9.368 39.115,-9.368 		"/>
	</g>
</pattern>
<pattern  x="-336.662" y="-198.336" width="39.115" height="18.736" patternUnits="userSpaceOnUse" id="Unnamed_Pattern_8" viewBox="0 -18.736 39.115 18.736" overflow="visible">
	<g>
		<polygon fill="none" points="0,-18.736 39.115,-18.736 39.115,0 0,0 		"/>
		<polygon fill="#10153C" points="39.115,-9.368 0,-9.368 0,0 39.115,0 		"/>
		<polygon fill="#60B746" points="39.115,-18.736 0,-18.736 0,-9.368 39.115,-9.368 		"/>
	</g>
</pattern>
<pattern  x="-336.662" y="-198.336" width="39.115" height="18.736" patternUnits="userSpaceOnUse" id="Unnamed_Pattern_9" viewBox="0 -18.736 39.115 18.736" overflow="visible">
	<g>
		<polygon fill="none" points="0,-18.736 39.115,-18.736 39.115,0 0,0 		"/>
		<polygon fill="#10153C" points="39.115,-9.368 0,-9.368 0,0 39.115,0 		"/>
		<polygon fill="#60B746" points="39.115,-18.736 0,-18.736 0,-9.368 39.115,-9.368 		"/>
	</g>
</pattern>
<g>
	<polygon fill="#60BA46" points="502.513,23.667 504.321,19.575 503.363,13.614 503.105,8.282 504.852,2.857 506.847,2.762 
		508.216,3.363 511.42,0.539 514.117,1.076 516.306,4.977 517.929,10.911 519.355,12.845 522.048,13.378 523.515,15.981 
		526.208,16.521 527.637,18.457 523.834,22.643 518.727,27.565 518.192,30.261 515.686,33.723 512.513,37.217 511.443,42.608 
		507.154,36.801 504.895,31.564 	"/>
	<polygon fill="none" stroke="#000000" points="502.513,23.667 504.321,19.575 503.363,13.614 503.105,8.282 504.852,2.857 
		506.847,2.762 508.216,3.363 511.42,0.539 514.117,1.076 516.306,4.977 517.929,10.911 519.355,12.845 522.048,13.378 
		523.515,15.981 526.208,16.521 527.637,18.457 523.834,22.643 518.727,27.565 518.192,30.261 515.686,33.723 512.513,37.217 
		511.443,42.608 507.154,36.801 504.895,31.564 	"/>
	<polygon fill="#60BA46" points="499.978,26.46 502.513,23.667 504.895,31.564 507.154,36.801 511.443,42.608 510.9,45.302 
		506.966,46.83 501.097,49.783 499.477,43.847 499.728,35.153 500.932,32.426 500.168,30.458 	"/>
	<polygon fill="none" stroke="#000000" points="499.978,26.46 502.513,23.667 504.895,31.564 507.154,36.801 511.443,42.608 
		510.9,45.302 506.966,46.83 501.097,49.783 499.477,43.847 499.728,35.153 500.932,32.426 500.168,30.458 	"/>
	<polygon fill="#60BA46" points="496.465,50.671 501.097,49.783 499.477,43.847 499.728,35.153 500.932,32.426 500.168,30.458 
		500.071,28.46 494.777,29.382 489.536,31.639 489.702,34.971 491.193,38.236 492.115,43.535 493.446,43.473 495.066,49.399 	"/>
	<polygon fill="none" stroke="#000000" points="496.465,50.671 501.097,49.783 499.477,43.847 499.728,35.153 500.932,32.426 
		500.168,30.458 500.071,28.46 494.777,29.382 489.536,31.639 489.702,34.971 491.193,38.236 492.115,43.535 493.446,43.473 
		495.066,49.399 	"/>
	<polygon fill="#60BA46" points="496.787,57.334 496.465,50.671 501.097,49.783 510.9,45.302 512.927,45.876 512.387,48.569 
		514.484,50.472 517.246,52.34 519.243,52.25 517.817,50.311 519.815,50.214 521.243,52.15 520.645,53.516 518.073,55.642 
		518.836,57.61 516.166,57.734 515.406,55.771 513.411,55.868 509.949,53.36 	"/>
	<polygon fill="none" stroke="#000000" points="496.787,57.334 496.465,50.671 501.097,49.783 510.9,45.302 512.927,45.876 
		512.387,48.569 514.484,50.472 517.246,52.34 519.243,52.25 517.817,50.311 519.815,50.214 521.243,52.15 520.645,53.516 
		518.073,55.642 518.836,57.61 516.166,57.734 515.406,55.771 513.411,55.868 509.949,53.36 	"/>
	<polygon fill="#60BA46" points="509.603,60.056 507.983,54.121 509.949,53.36 512.046,55.265 512.207,58.596 	"/>
	<polygon fill="none" stroke="#000000" points="509.603,60.056 507.983,54.121 509.949,53.36 512.046,55.265 512.207,58.596 	"/>
	<polygon fill="#FFFFFF" points="499.265,67.228 507,61.515 509.671,61.389 509.603,60.056 507.983,54.121 496.787,57.334 
		496.913,60 	"/>
	<polygon fill="none" stroke="#000000" points="499.265,67.228 507,61.515 509.671,61.389 509.603,60.056 507.983,54.121 
		496.787,57.334 496.913,60 	"/>
	<polygon fill="#FFFFFF" points="456.69,70.61 456.524,67.279 461.001,63.056 458.714,57.16 469.341,55.978 475.11,51.029 
		474.886,46.367 472.826,45.129 481.008,34.718 489.536,31.639 489.702,34.971 491.193,38.236 492.115,43.535 493.446,43.473 
		495.066,49.399 496.465,50.671 496.787,57.334 496.913,60 499.265,67.228 501.924,67.102 507.764,63.484 509.134,64.087 
		501.423,70.466 498.725,69.929 498.633,67.931 493.903,66.817 487.842,65.775 487.044,63.141 484.351,62.603 480.351,62.795 
		472.517,66.51 469.852,66.642 	"/>
	<polygon fill="none" stroke="#000000" stroke-miterlimit="10" points="456.69,70.61 456.524,67.279 461.001,63.056 458.714,57.16 
		469.341,55.978 475.11,51.029 474.886,46.367 472.826,45.129 481.008,34.718 489.536,31.639 489.702,34.971 491.193,38.236 
		492.115,43.535 493.446,43.473 495.066,49.399 496.465,50.671 496.787,57.334 496.913,60 499.265,67.228 501.924,67.102 
		507.764,63.484 509.134,64.087 501.423,70.466 498.725,69.929 498.633,67.931 493.903,66.817 487.842,65.775 487.044,63.141 
		484.351,62.603 480.351,62.795 472.517,66.51 469.852,66.642 	"/>
	<polygon fill="#60BA46" points="491.203,66.282 490.064,70.345 490.925,74.306 493.715,76.847 489.974,82.366 491.465,85.634 
		492.103,84.936 496.227,87.41 498.669,82.615 499.173,79.254 499.012,75.924 498.219,73.291 496.82,72.022 497.423,70.659 
		498.725,69.929 498.633,67.931 	"/>
	<polygon fill="none" stroke="#000000" points="491.203,66.282 490.064,70.345 490.925,74.306 493.715,76.847 489.974,82.366 
		491.465,85.634 492.103,84.936 496.227,87.41 498.669,82.615 499.173,79.254 499.012,75.924 498.219,73.291 496.82,72.022 
		497.423,70.659 498.725,69.929 498.633,67.931 	"/>
	<polygon fill="#60BA46" points="497.117,92.042 491.5,86.303 491.465,85.634 490.005,83.033 490.864,86.999 492.514,93.597 
		497.18,93.374 	"/>
	<polygon fill="none" stroke="#000000" points="497.117,92.042 491.5,86.303 491.465,85.634 490.005,83.033 490.864,86.999 
		492.514,93.597 497.18,93.374 	"/>
	<path fill="#FFFFFF" d="M464.31,90.279c1.333-0.063,25.664-7.913,25.664-7.913l0.062,1.335l2.478,9.896l4-0.194l0.16,3.335
		l-3.268,1.489l-0.701-0.633l-3.457-2.506l-3.681-7.168l0.99,6.633l1.459,2.601l-3.333,0.158l-2.703-0.54l-0.059-1.331l0.599-1.365
		l-0.759-1.967l-3.365-0.502l-2.058-1.241l-1.431-1.934l-2.672,0.131l-0.599,1.364l-2.633,0.792l-3.141,4.158L464.31,90.279z"/>
	<path fill="none" stroke="#000000" d="M464.31,90.279c1.333-0.063,25.664-7.913,25.664-7.913l0.062,1.335l2.478,9.896l4-0.194
		l0.16,3.335l-3.268,1.489l-0.701-0.633l-3.457-2.506l-3.681-7.168l0.99,6.633l1.459,2.601l-3.333,0.158l-2.703-0.54l-0.059-1.331
		l0.599-1.365l-0.759-1.967l-3.365-0.502l-2.058-1.241l-1.431-1.934l-2.672,0.131l-0.599,1.364l-2.633,0.792l-3.141,4.158
		L464.31,90.279z"/>
	<polygon fill="#60BA46" points="456.524,67.279 451.454,72.868 453.646,76.766 455.424,86.031 457.013,91.296 464.31,90.279 
		489.974,82.366 493.715,76.847 490.925,74.306 490.064,70.345 491.203,66.282 487.842,65.775 487.044,63.141 484.351,62.603 
		480.351,62.795 472.517,66.51 469.852,66.642 456.69,70.61 	"/>
	<polygon fill="none" stroke="#000000" stroke-miterlimit="10" points="456.524,67.279 451.454,72.868 453.646,76.766 
		455.424,86.031 457.013,91.296 464.31,90.279 489.974,82.366 493.715,76.847 490.925,74.306 490.064,70.345 491.203,66.282 
		487.842,65.775 487.044,63.141 484.351,62.603 480.351,62.795 472.517,66.51 469.852,66.642 456.69,70.61 	"/>
	<polygon fill="#60BA46" points="428.877,103.332 424.455,80.838 426.422,80.077 434.36,78.362 437.086,79.563 441.086,79.376 
		445.013,77.851 451.454,72.868 453.646,76.766 455.393,85.364 455.079,92.727 453.875,95.454 450.003,98.31 450.13,100.977 
		448.169,101.736 447.634,104.437 447.06,106.466 444.393,106.592 442.298,104.689 441.031,106.088 437.036,106.279 
		436.334,105.646 433.666,105.772 432.238,103.84 	"/>
	<polygon fill="none" stroke="#000000" points="428.877,103.332 424.455,80.838 426.422,80.077 434.36,78.362 437.086,79.563 
		441.086,79.376 445.013,77.851 451.454,72.868 453.646,76.766 455.393,85.364 455.079,92.727 453.875,95.454 450.003,98.31 
		450.13,100.977 448.169,101.736 447.634,104.437 447.06,106.466 444.393,106.592 442.298,104.689 441.031,106.088 437.036,106.279 
		436.334,105.646 433.666,105.772 432.238,103.84 	"/>
	<polygon fill="#60BA46" points="445.724,106.529 445.853,109.195 447.982,111.762 454.169,115.475 458.137,114.611 
		460.072,113.186 463.305,111.028 463.113,107.028 464.351,104.967 464.889,102.273 468.121,100.113 469.989,97.352 472.498,93.892 
		471.733,91.926 474.366,91.13 476.424,92.368 477.699,90.97 476.339,90.366 474.909,88.432 472.237,88.563 471.638,89.927 
		469.005,90.719 465.865,94.877 464.31,90.279 457.013,91.296 455.424,86.031 455.079,92.727 453.875,95.454 450.003,98.31 
		450.13,100.977 448.169,101.736 447.06,106.466 	"/>
	<polygon fill="none" stroke="#000000" points="445.724,106.529 445.853,109.195 447.982,111.762 454.169,115.475 458.137,114.611 
		460.072,113.186 463.305,111.028 463.113,107.028 464.351,104.967 464.889,102.273 468.121,100.113 469.989,97.352 472.498,93.892 
		471.733,91.926 474.366,91.13 476.424,92.368 477.699,90.97 476.339,90.366 474.909,88.432 472.237,88.563 471.638,89.927 
		469.005,90.719 465.865,94.877 464.31,90.279 457.013,91.296 455.424,86.031 455.079,92.727 453.875,95.454 450.003,98.31 
		450.13,100.977 448.169,101.736 447.06,106.466 	"/>
	<path fill="#FFFFFF" d="M441.233,124.107c1.359,0.6,14.555-2.703,14.555-2.703l32.361-7.563l7.863-3.047l-1.46-2.602l-3.325,0.158
		l-2.098-1.902l1.233-2.061l-2.124-2.569l1.966-0.761l-2.761-1.871l-3.397-1.173l-2.065-1.238l-0.059-1.331l0.599-1.365
		l-0.759-1.967l-3.365-0.502l-0.698-0.637l-1.274,1.398l-2.059-1.237l-2.633,0.795l0.765,1.966l-4.377,6.221l-3.231,2.161
		l-0.538,2.693l-1.238,2.061l0.192,4l-5.168,3.583l-3.968,0.864l-2.762-1.874l-6.313,7.652L441.233,124.107z"/>
	<path fill="none" stroke="#000000" d="M441.233,124.107c1.359,0.6,14.555-2.703,14.555-2.703l32.361-7.563l7.863-3.047l-1.46-2.602
		l-3.325,0.158l-2.098-1.902l1.233-2.061l-2.124-2.569l1.966-0.761l-2.761-1.871l-3.397-1.173l-2.065-1.238l-0.059-1.331
		l0.599-1.365l-0.759-1.967l-3.365-0.502l-0.698-0.637l-1.274,1.398l-2.059-1.237l-2.633,0.795l0.765,1.966l-4.377,6.221
		l-3.231,2.161l-0.538,2.693l-1.238,2.061l0.192,4l-5.168,3.583l-3.968,0.864l-2.762-1.874l-6.313,7.652L441.233,124.107z"/>
	<polygon fill="#BDBAB9" points="494.102,98.862 493.596,102.225 493.759,105.556 495.628,102.797 495.467,99.466 	"/>
	<polygon fill="none" stroke="#000000" points="494.102,98.862 493.596,102.225 493.759,105.556 495.628,102.797 495.467,99.466 	
		"/>
	<polygon fill="#60BA46" points="455.788,121.404 488.149,113.84 496.012,110.793 496.777,112.757 495.538,114.818 492.94,116.281 
		492.971,116.945 496.966,116.755 498.998,117.33 499.759,119.292 498.492,120.691 493.229,122.278 493.957,123.575 496.054,125.48 
		496.149,127.48 492.878,128.968 491.614,130.371 487.806,134.56 487.935,137.222 485.966,137.986 482.699,139.48 481.368,139.542 
		475.118,134.5 472.417,133.958 467.785,134.852 466.519,136.249 464.519,136.343 464.427,134.343 463.03,133.078 461.064,133.838 
		454.4,134.162 451.132,135.652 447.262,138.506 438.602,138.922 438.505,136.927 441.041,134.134 444.305,132.642 448.783,128.419 
		450.746,127.658 454.62,124.801 455.884,123.402 	"/>
	<polygon fill="none" stroke="#000000" points="455.788,121.404 488.149,113.84 496.012,110.793 496.777,112.757 495.538,114.818 
		492.94,116.281 492.971,116.945 496.966,116.755 498.998,117.33 499.759,119.292 498.492,120.691 493.229,122.278 493.957,123.575 
		496.054,125.48 496.149,127.48 492.878,128.968 491.614,130.371 487.806,134.56 487.935,137.222 485.966,137.986 482.699,139.48 
		481.368,139.542 475.118,134.5 472.417,133.958 467.785,134.852 466.519,136.249 464.519,136.343 464.427,134.343 463.03,133.078 
		461.064,133.838 454.4,134.162 451.132,135.652 447.262,138.506 438.602,138.922 438.505,136.927 441.041,134.134 444.305,132.642 
		448.783,128.419 450.746,127.658 454.62,124.801 455.884,123.402 	"/>
	<polygon fill="#FFFFFF" points="447.262,138.506 447.388,141.173 448.79,142.443 450.785,142.348 454.305,146.187 462.622,152.46 
		464.716,154.365 465.478,156.331 467.578,158.234 469.003,160.169 470.334,160.105 470.84,156.742 471.444,155.376 
		474.105,155.248 476.013,153.154 475.914,151.156 477.818,149.061 479.752,147.63 479.624,144.97 481.495,142.207 483.371,139.447 
		481.368,139.542 475.118,134.5 472.417,133.958 467.785,134.852 466.519,136.249 464.519,136.343 464.427,134.343 463.03,133.078 
		461.064,133.838 454.4,134.162 451.132,135.652 	"/>
	<polygon fill="none" stroke="#000000" points="447.262,138.506 447.388,141.173 448.79,142.443 450.785,142.348 454.305,146.187 
		462.622,152.46 464.716,154.365 465.478,156.331 467.578,158.234 469.003,160.169 470.334,160.105 470.84,156.742 471.444,155.376 
		474.105,155.248 476.013,153.154 475.914,151.156 477.818,149.061 479.752,147.63 479.624,144.97 481.495,142.207 483.371,139.447 
		481.368,139.542 475.118,134.5 472.417,133.958 467.785,134.852 466.519,136.249 464.519,136.343 464.427,134.343 463.03,133.078 
		461.064,133.838 454.4,134.162 451.132,135.652 	"/>
	<polygon fill="#60BA46" points="429.372,141.373 431.337,140.611 438.602,138.922 447.262,138.506 447.388,141.173 448.79,142.443 
		450.785,142.348 454.305,146.187 464.716,154.365 465.478,156.331 467.578,158.234 469.003,160.169 468.431,162.199 
		467.196,164.263 467.607,172.925 463.614,173.114 463.111,176.478 457.113,176.765 441.822,178.168 439.729,176.265 438.043,169 
		439.182,164.939 433.245,152.538 	"/>
	<polygon fill="none" stroke="#000000" points="429.372,141.373 431.337,140.611 438.602,138.922 447.262,138.506 447.388,141.173 
		448.79,142.443 450.785,142.348 454.305,146.187 464.716,154.365 465.478,156.331 467.578,158.234 469.003,160.169 
		468.431,162.199 467.196,164.263 467.607,172.925 463.614,173.114 463.111,176.478 457.113,176.765 441.822,178.168 
		439.729,176.265 438.043,169 439.182,164.939 433.245,152.538 	"/>
	<polygon fill="#60BA46" points="422.119,185.124 419.868,179.89 428.464,178.143 439.729,176.265 441.822,178.168 457.113,176.765 
		463.111,176.478 463.614,173.114 467.607,172.925 470.692,181.457 477.071,189.162 477.93,193.125 485.042,202.138 
		486.472,204.074 487.777,217.363 486.575,220.089 482.604,220.949 480.573,220.38 477.049,216.544 473.687,216.035 
		472.132,211.439 470.772,210.833 469.977,208.203 467.979,208.298 465.819,205.062 465.626,201.064 464.896,199.765 
		462.899,199.864 461.597,200.589 460.835,198.625 462.069,196.561 461.814,191.23 456.323,188.155 451.473,184.384 
		447.442,183.907 442.367,189.496 439.668,188.951 436.783,184.419 432.086,183.978 430.053,183.41 	"/>
	<polygon fill="none" stroke="#000000" points="422.119,185.124 419.868,179.89 428.464,178.143 439.729,176.265 441.822,178.168 
		457.113,176.765 463.111,176.478 463.614,173.114 467.607,172.925 470.692,181.457 477.071,189.162 477.93,193.125 
		485.042,202.138 486.472,204.074 487.777,217.363 486.575,220.089 482.604,220.949 480.573,220.38 477.049,216.544 
		473.687,216.035 472.132,211.439 470.772,210.833 469.977,208.203 467.979,208.298 465.819,205.062 465.626,201.064 
		464.896,199.765 462.899,199.864 461.597,200.589 460.835,198.625 462.069,196.561 461.814,191.23 456.323,188.155 
		451.473,184.384 447.442,183.907 442.367,189.496 439.668,188.951 436.783,184.419 432.086,183.978 430.053,183.41 	"/>
	<path fill="#60BA46" d="M410.844,144.932c1.333-0.062,10.596-1.845,10.596-1.845l7.932-1.715l3.873,11.165l5.938,12.401
		L438.043,169l1.686,7.266l-19.861,3.625l2.251,5.233l-3.229,2.16l-3.997,0.19l-2.139-16.592L410.844,144.932z"/>
	<path fill="none" stroke="#000000" d="M410.844,144.932c1.333-0.062,10.596-1.845,10.596-1.845l7.932-1.715l3.873,11.165
		l5.938,12.401L438.043,169l1.686,7.266l-19.861,3.625l2.251,5.233l-3.229,2.16l-3.997,0.19l-2.139-16.592L410.844,144.932z"/>
	<polygon fill="#60BA46" points="408.386,191.125 408.988,189.761 413.654,189.537 414.893,187.474 412.754,170.882 
		410.844,144.932 396.219,146.302 393.647,148.428 393.839,152.428 390.134,158.613 391.28,168.576 393.404,171.148 
		392.834,173.177 390.297,175.968 389.221,181.362 389.35,184.026 399.311,182.88 402.608,182.052 403.469,186.021 404.834,186.623 
		406.324,189.892 	"/>
	<polygon fill="none" stroke="#000000" points="408.386,191.125 408.988,189.761 413.654,189.537 414.893,187.474 412.754,170.882 
		410.844,144.932 396.219,146.302 393.647,148.428 393.839,152.428 390.134,158.613 391.28,168.576 393.404,171.148 
		392.834,173.177 390.297,175.968 389.221,181.362 389.35,184.026 399.311,182.88 402.608,182.052 403.469,186.021 404.834,186.623 
		406.324,189.892 	"/>
	<path fill="#FFFFFF" d="M372.604,196.854c0.633-0.704,1.107-4.729,1.107-4.729l-0.83-3.302l1.842-3.428l-2.888-4.529l-2.222-4.572
		l-0.418-8.662l13.992-0.672l7.958-1.049l0.134,2.664l2.124,2.572l-0.569,2.029l-2.537,2.791l-1.076,5.394l0.129,2.664l9.961-1.146
		l3.297-0.828l0.861,3.969l1.365,0.602l1.489,3.27l2.062,1.233l-1.204,2.732l-0.633,0.696l0.062,1.333l4.734,1.109l0.09,1.995
		l-1.268,1.396l-2.729-1.205l-3.455-2.503l0.09,2l-1.966,0.762l-3.36-0.507l-2.601,1.461l-2.7-0.538l-2.822-3.204l-1.397-1.271
		l-1.932,1.431l-3.973,0.859l-3.39-1.171L372.604,196.854z"/>
	<path fill="none" stroke="#000000" d="M372.604,196.854c0.633-0.704,1.107-4.729,1.107-4.729l-0.83-3.302l1.842-3.428l-2.888-4.529
		l-2.222-4.572l-0.418-8.662l13.992-0.672l7.958-1.049l0.134,2.664l2.124,2.572l-0.569,2.029l-2.537,2.791l-1.076,5.394l0.129,2.664
		l9.961-1.146l3.297-0.828l0.861,3.969l1.365,0.602l1.489,3.27l2.062,1.233l-1.204,2.732l-0.633,0.696l0.062,1.333l4.734,1.109
		l0.09,1.995l-1.268,1.396l-2.729-1.205l-3.455-2.503l0.09,2l-1.966,0.762l-3.36-0.507l-2.601,1.461l-2.7-0.538l-2.822-3.204
		l-1.397-1.271l-1.932,1.431l-3.973,0.859l-3.39-1.171L372.604,196.854z"/>
	<polygon fill="#60BA46" points="368.974,162.97 369.196,167.632 383.188,166.96 391.146,165.912 390.134,158.613 393.839,152.428 
		393.647,148.428 396.219,146.302 395.993,141.64 397.229,139.577 396.464,137.609 395.066,136.341 395.611,133.642 390.28,133.9 
		388.981,134.63 379.653,135.078 362.361,136.578 362.421,137.91 363.383,143.874 364.206,147.173 365.609,162.462 368.942,162.304 
			"/>
	<polygon fill="none" stroke="#000000" points="368.974,162.97 369.196,167.632 383.188,166.96 391.146,165.912 390.134,158.613 
		393.839,152.428 393.647,148.428 396.219,146.302 395.993,141.64 397.229,139.577 396.464,137.609 395.066,136.341 
		395.611,133.642 390.28,133.9 388.981,134.63 379.653,135.078 362.361,136.578 362.421,137.91 363.383,143.874 364.206,147.173 
		365.609,162.462 368.942,162.304 	"/>
	<polygon fill="#60BA46" points="396.219,146.302 395.993,141.64 397.229,139.577 398.409,136.18 398.942,133.482 400.211,132.085 
		408.874,131.671 413.472,130.117 422.732,128.337 433.331,126.492 439.293,125.539 441.233,124.107 441.894,124.079 
		455.788,121.404 455.884,123.402 450.746,127.658 448.783,128.419 444.305,132.642 441.041,134.134 438.505,136.927 
		438.602,138.922 431.337,140.611 429.372,141.373 410.844,144.932 	"/>
	<polygon fill="none" stroke="#000000" points="396.219,146.302 395.993,141.64 397.229,139.577 398.409,136.18 398.942,133.482 
		400.211,132.085 408.874,131.671 413.472,130.117 422.732,128.337 433.331,126.492 439.293,125.539 441.233,124.107 
		441.894,124.079 455.788,121.404 455.884,123.402 450.746,127.658 448.783,128.419 444.305,132.642 441.041,134.134 
		438.505,136.927 438.602,138.922 431.337,140.611 429.372,141.373 410.844,144.932 	"/>
	<polygon fill="#60BA46" points="400.211,132.085 401.445,130.027 401.285,126.694 401.888,125.332 405.219,125.171 
		408.294,119.679 408.898,118.314 414.861,117.363 418.827,116.5 418.729,114.502 420.063,114.439 421.461,115.711 422.761,114.979 
		423.301,112.281 425.167,109.519 425.104,108.188 427.771,108.059 429.041,106.663 428.877,103.332 432.238,103.84 
		433.666,105.772 436.334,105.646 437.036,106.279 441.031,106.088 442.298,104.689 444.393,106.592 445.724,106.529 
		445.853,109.195 447.982,111.762 451.408,113.602 445.094,121.253 439.293,125.539 413.472,130.117 408.874,131.671 	"/>
	<polygon fill="none" stroke="#000000" points="400.211,132.085 401.445,130.027 401.285,126.694 401.888,125.332 405.219,125.171 
		408.294,119.679 408.898,118.314 414.861,117.363 418.827,116.5 418.729,114.502 420.063,114.439 421.461,115.711 422.761,114.979 
		423.301,112.281 425.167,109.519 425.104,108.188 427.771,108.059 429.041,106.663 428.877,103.332 432.238,103.84 
		433.666,105.772 436.334,105.646 437.036,106.279 441.031,106.088 442.298,104.689 444.393,106.592 445.724,106.529 
		445.853,109.195 447.982,111.762 451.408,113.602 445.094,121.253 439.293,125.539 413.472,130.117 408.874,131.671 	"/>
	<polygon fill="#60BA46" points="408.294,119.679 408.071,115.015 409.905,111.587 410.448,108.894 409.715,107.592 
		409.588,104.926 410.163,102.896 409.462,102.261 409.238,97.597 408.477,95.631 407.621,91.666 407.265,84.337 410.598,84.179 
		411.869,82.778 417.8,81.162 424.455,80.838 428.877,103.332 429.041,106.663 427.771,108.059 425.104,108.188 425.167,109.519 
		423.301,112.281 422.761,114.979 421.461,115.711 420.063,114.439 418.729,114.502 418.827,116.5 414.861,117.363 408.898,118.314 
			"/>
	<polygon fill="none" stroke="#000000" points="408.294,119.679 408.071,115.015 409.905,111.587 410.448,108.894 409.715,107.592 
		409.588,104.926 410.163,102.896 409.462,102.261 409.238,97.597 408.477,95.631 407.621,91.666 407.265,84.337 410.598,84.179 
		411.869,82.778 417.8,81.162 424.455,80.838 428.877,103.332 429.041,106.663 427.771,108.059 425.104,108.188 425.167,109.519 
		423.301,112.281 422.761,114.979 421.461,115.711 420.063,114.439 418.729,114.502 418.827,116.5 414.861,117.363 408.898,118.314 
			"/>
	<polygon fill="#60BA46" points="412.022,82.812 417.8,81.162 424.455,80.838 426.422,80.077 434.36,78.362 434.165,74.364 
		437.933,69.508 437.749,65.508 436.284,62.91 434.695,57.643 433.301,56.377 432.031,57.773 428.259,62.63 426.895,62.021 
		426.133,60.061 428.608,55.934 429.241,55.233 429.045,51.236 427.657,49.968 427.52,47.304 425.494,46.737 422.795,46.197 
		419.365,44.357 418.039,44.421 416.099,45.849 416.226,48.516 415.593,49.214 415.055,51.91 414.487,53.941 411.825,54.068 
		411.219,55.433 411.375,58.764 410.175,61.496 410.401,66.156 411.861,68.758 413.29,70.69 413.384,72.69 413.611,77.354 
		412.406,80.084 	"/>
	<polygon fill="none" stroke="#000000" points="412.022,82.812 417.8,81.162 424.455,80.838 426.422,80.077 434.36,78.362 
		434.165,74.364 437.933,69.508 437.749,65.508 436.284,62.91 434.695,57.643 433.301,56.377 432.031,57.773 428.259,62.63 
		426.895,62.021 426.133,60.061 428.608,55.934 429.241,55.233 429.045,51.236 427.657,49.968 427.52,47.304 425.494,46.737 
		422.795,46.197 419.365,44.357 418.039,44.421 416.099,45.849 416.226,48.516 415.593,49.214 415.055,51.91 414.487,53.941 
		411.825,54.068 411.219,55.433 411.375,58.764 410.175,61.496 410.401,66.156 411.861,68.758 413.29,70.69 413.384,72.69 
		413.611,77.354 412.406,80.084 	"/>
	<polygon fill="#60BA46" points="400.433,53.279 399.635,50.647 398.875,48.679 395.417,46.174 391.418,46.367 390.718,45.735 
		385.358,45.326 382.534,42.123 388.402,39.168 394.141,33.547 395.501,34.153 393.632,36.915 393.73,38.91 397.696,38.056 
		401.156,40.557 405.82,40.333 407.722,38.238 413.62,35.956 414.384,37.918 416.386,37.822 420.352,36.963 421.145,39.596 
		420.572,41.63 415.272,42.55 413.248,41.98 410.009,44.139 407.343,44.27 406.11,46.33 404.138,47.092 	"/>
	<polygon fill="none" stroke="#000000" points="400.433,53.279 399.635,50.647 398.875,48.679 395.417,46.174 391.418,46.367 
		390.718,45.735 385.358,45.326 382.534,42.123 388.402,39.168 394.141,33.547 395.501,34.153 393.632,36.915 393.73,38.91 
		397.696,38.056 401.156,40.557 405.82,40.333 407.722,38.238 413.62,35.956 414.384,37.918 416.386,37.822 420.352,36.963 
		421.145,39.596 420.572,41.63 415.272,42.55 413.248,41.98 410.009,44.139 407.343,44.27 406.11,46.33 404.138,47.092 	"/>
	<path fill="#FFFFFF" d="M403.051,77.271c-0.139-0.073-18.061,2.124-18.061,2.124l-3.426-1.837l-1.396-1.265l-0.227-4.669
		l-0.856-3.962l-6.253-5.042l-4.062-1.139l-1.015-7.297l-0.703-0.635l0.542-2.701l2.602-1.459l-0.256-5.327l1.932-1.433l3.935-1.523
		l2.031,0.572l4.696,0.444l2.824,3.203l5.36,0.409l0.7,0.632l3.998-0.193l3.459,2.505l1.65,6.601l-1.271,1.395l0.132,2.669
		l2.537-2.796l1.864-2.761l-0.502,3.362l-0.447,4.7l-1.197,2.729L403.051,77.271z"/>
	<path fill="none" stroke="#000000" d="M403.051,77.271c-0.139-0.073-18.061,2.124-18.061,2.124l-3.426-1.837l-1.396-1.265
		l-0.227-4.669l-0.856-3.962l-6.253-5.042l-4.062-1.139l-1.015-7.297l-0.703-0.635l0.542-2.701l2.602-1.459l-0.256-5.327
		l1.932-1.433l3.935-1.523l2.031,0.572l4.696,0.444l2.824,3.203l5.36,0.409l0.7,0.632l3.998-0.193l3.459,2.505l1.65,6.601
		l-1.271,1.395l0.132,2.669l2.537-2.796l1.864-2.761l-0.502,3.362l-0.447,4.7l-1.197,2.729L403.051,77.271z"/>
	<polygon fill="#60BA46" points="402.913,77.199 407.265,84.337 407.621,91.666 408.477,95.631 409.238,97.597 409.462,102.261 
		410.163,102.896 409.588,104.926 409.715,107.592 410.448,108.894 409.905,111.587 408.071,115.015 408.265,119.013 
		405.219,125.171 401.888,125.332 401.285,126.694 400.652,127.392 399.319,127.458 397.032,121.555 395.604,119.621 
		392.241,119.115 390.813,117.181 391.414,115.813 391.224,111.821 388.526,111.281 387.762,109.315 382.209,104.906 
		381.258,98.943 381.826,96.914 383.699,94.149 384.263,92.118 382.903,91.517 383.506,90.15 386.74,87.994 388.577,84.568 
		388.514,83.234 384.991,79.396 	"/>
	<polygon fill="none" stroke="#000000" points="402.913,77.199 407.265,84.337 407.621,91.666 408.477,95.631 409.238,97.597 
		409.462,102.261 410.163,102.896 409.588,104.926 409.715,107.592 410.448,108.894 409.905,111.587 408.071,115.015 
		408.265,119.013 405.219,125.171 401.888,125.332 401.285,126.694 400.652,127.392 399.319,127.458 397.032,121.555 
		395.604,119.621 392.241,119.115 390.813,117.181 391.414,115.813 391.224,111.821 388.526,111.281 387.762,109.315 
		382.209,104.906 381.258,98.943 381.826,96.914 383.699,94.149 384.263,92.118 382.903,91.517 383.506,90.15 386.74,87.994 
		388.577,84.568 388.514,83.234 384.991,79.396 	"/>
	<path fill="#FFFFFF" d="M362.361,136.578l16.625-1.468l9.995-0.479l1.299-0.73l5.331-0.258l-0.545,2.699l1.398,1.268l0.765,1.968
		l1.773-4.757l-0.061-1.338l1.27-1.396l1.233-2.059l-0.16-3.333l-0.633,0.698l-1.333,0.066l-2.287-5.903l-1.428-1.935l-3.363-0.506
		l-1.428-1.934l0.601-1.368l-0.189-3.993l-2.698-0.54l-0.764-1.966l-5.553-4.409l-0.951-5.963l-2.034-0.572l-11.325,0.545
		l-16.657,0.8l0.796,2.63l4.854,3.777l1.368,0.602l-0.606,1.36l-0.601,1.368l0.762,1.966l2.764,1.871c0,0,0.863,17.99,0.893,18.654
		C361.507,132.613,362.512,136.642,362.361,136.578z"/>
	<path fill="none" stroke="#000000" d="M362.361,136.578l16.625-1.468l9.995-0.479l1.299-0.73l5.331-0.258l-0.545,2.699l1.398,1.268
		l0.765,1.968l1.773-4.757l-0.061-1.338l1.27-1.396l1.233-2.059l-0.16-3.333l-0.633,0.698l-1.333,0.066l-2.287-5.903l-1.428-1.935
		l-3.363-0.506l-1.428-1.934l0.601-1.368l-0.189-3.993l-2.698-0.54l-0.764-1.966l-5.553-4.409l-0.951-5.963l-2.034-0.572
		l-11.325,0.545l-16.657,0.8l0.796,2.63l4.854,3.777l1.368,0.602l-0.606,1.36l-0.601,1.368l0.762,1.966l2.764,1.871
		c0,0,0.863,17.99,0.893,18.654C361.507,132.613,362.512,136.642,362.361,136.578z"/>
	<polygon fill="#60BA46" points="345.33,73.958 345.749,82.615 348.762,89.821 351.242,99.716 379.224,98.371 381.258,98.943 
		381.826,96.914 383.699,94.149 384.263,92.118 382.903,91.517 383.506,90.15 386.74,87.994 388.577,84.568 388.514,83.234 
		384.991,79.396 381.565,77.559 380.168,76.293 379.942,71.625 379.913,70.963 364.619,72.362 	"/>
	<polygon fill="none" stroke="#000000" points="345.33,73.958 345.749,82.615 348.762,89.821 351.242,99.716 379.224,98.371 
		381.258,98.943 381.826,96.914 383.699,94.149 384.263,92.118 382.903,91.517 383.506,90.15 386.74,87.994 388.577,84.568 
		388.514,83.234 384.991,79.396 381.565,77.559 380.168,76.293 379.942,71.625 379.913,70.963 364.619,72.362 	"/>
	<polygon fill="#60BA46" points="345.33,73.958 344.534,57.299 342.439,55.396 341.705,54.097 343.607,52.004 343.415,48.005 
		341.792,42.074 339.349,32.842 338.933,24.183 352.928,23.509 359.113,27.219 361.11,27.125 362.415,26.392 366.439,26.867 
		367.87,28.801 369.837,28.037 371.899,29.275 375.232,29.115 376.531,28.387 378.531,28.29 379.927,29.558 385.258,29.299 
		379.418,32.92 374.981,37.805 369.94,44.063 370.196,49.39 367.594,50.849 367.052,53.55 367.755,54.185 368.77,61.481 
		372.833,62.62 379.085,67.663 379.913,70.963 365.95,72.301 	"/>
	<polygon fill="none" stroke="#000000" points="345.33,73.958 344.534,57.299 342.439,55.396 341.705,54.097 343.607,52.004 
		343.415,48.005 341.792,42.074 339.349,32.842 338.933,24.183 352.928,23.509 359.113,27.219 361.11,27.125 362.415,26.392 
		366.439,26.867 367.87,28.801 369.837,28.037 371.899,29.275 375.232,29.115 376.531,28.387 378.531,28.29 379.927,29.558 
		385.258,29.299 379.418,32.92 374.981,37.805 369.94,44.063 370.196,49.39 367.594,50.849 367.052,53.55 367.755,54.185 
		368.77,61.481 372.833,62.62 379.085,67.663 379.913,70.963 365.95,72.301 	"/>
	<polygon fill="#60BA46" points="338.933,24.183 317.583,24.536 297.533,24.166 297.572,38.855 296.88,52.247 318.926,52.523 
		343.607,52.004 343.415,48.005 339.349,32.842 	"/>
	<polygon fill="none" stroke="#000000" points="338.933,24.183 317.583,24.536 297.533,24.166 297.572,38.855 296.88,52.247 
		318.926,52.523 343.607,52.004 343.415,48.005 339.349,32.842 	"/>
	<polygon fill="#60BA46" points="296.88,52.247 296.596,60.272 295.494,79.021 331.564,79.291 334.989,81.13 340.953,80.174 
		344.383,82.014 345.716,81.95 345.33,73.958 344.534,57.299 342.439,55.396 341.705,54.097 343.607,52.004 318.926,52.523 	"/>
	<polygon fill="none" stroke="#000000" points="296.88,52.247 296.596,60.272 295.494,79.021 331.564,79.291 334.989,81.13 
		340.953,80.174 344.383,82.014 345.716,81.95 345.33,73.958 344.534,57.299 342.439,55.396 341.705,54.097 343.607,52.004 
		318.926,52.523 	"/>
	<polygon fill="#60BA46" points="295.494,79.021 294.99,96.408 308.381,97.101 308.797,105.763 331.51,106.006 355.529,105.519 
		352.038,102.347 351.242,99.716 348.762,89.821 345.749,82.615 345.716,81.95 344.383,82.014 340.953,80.174 334.989,81.13 
		331.564,79.291 315.544,79.396 	"/>
	<polygon fill="none" stroke="#000000" points="295.494,79.021 294.99,96.408 308.381,97.101 308.797,105.763 331.51,106.006 
		355.529,105.519 352.038,102.347 351.242,99.716 348.762,89.821 345.749,82.615 345.716,81.95 344.383,82.014 340.953,80.174 
		334.989,81.13 331.564,79.291 315.544,79.396 	"/>
	<polygon fill="#60BA46" points="308.797,105.763 308.778,133.142 333.491,133.288 361.47,131.945 360.578,113.291 357.814,111.419 
		357.052,109.454 358.259,106.726 356.196,105.49 330.846,106.038 	"/>
	<polygon fill="none" stroke="#000000" points="308.797,105.763 308.778,133.142 333.491,133.288 361.47,131.945 360.578,113.291 
		357.814,111.419 357.052,109.454 358.259,106.726 356.196,105.49 330.846,106.038 	"/>
	<polygon fill="#FFFFFF" points="301.445,133.492 301.642,137.492 322.357,137.83 323.121,139.796 323.218,155.822 325.282,157.053 
		328.618,156.895 330.708,158.798 334.77,159.939 337.403,159.144 339.496,161.048 344.191,161.489 349.49,160.567 350.884,161.837 
		352.855,161.073 356.821,160.214 360.816,160.021 365.609,162.462 364.206,147.173 363.383,143.874 362.421,137.91 
		362.361,136.578 361.47,131.945 333.491,133.288 308.778,133.142 	"/>
	<polygon fill="none" stroke="#000000" points="301.445,133.492 301.642,137.492 322.357,137.83 323.121,139.796 323.218,155.822 
		325.282,157.053 328.618,156.895 330.708,158.798 334.77,159.939 337.403,159.144 339.496,161.048 344.191,161.489 349.49,160.567 
		350.884,161.837 352.855,161.073 356.821,160.214 360.816,160.021 365.609,162.462 364.206,147.173 363.383,143.874 
		362.421,137.91 362.361,136.578 361.47,131.945 333.491,133.288 308.778,133.142 	"/>
	<polygon fill="#60BA46" points="301.642,137.492 300.973,137.525 300.26,178.289 272.183,177.636 272.275,179.632 285.542,191.685 
		287.927,199.585 298.91,205.736 300.846,204.305 303.917,198.814 305.883,198.052 309.246,198.558 312.61,199.064 317.466,202.838 
		319.719,208.074 323.34,213.912 328.257,219.017 329.121,222.98 333.434,229.451 338.889,231.861 343.556,231.634 344.984,233.57 
		346.982,233.472 346.79,229.472 345.042,220.878 346.782,215.453 348.592,211.359 352.427,207.837 356.398,206.98 360.39,206.785 
		361.628,204.726 364.168,201.933 363.336,198.631 365.273,197.203 366.738,199.806 368.699,199.042 372.604,196.854 
		373.203,195.488 373.711,192.125 372.881,188.824 374.723,185.396 371.835,180.867 369.614,176.294 368.942,162.304 
		365.609,162.462 360.816,160.021 356.821,160.214 353.519,161.041 350.884,161.837 349.49,160.567 344.191,161.489 
		339.496,161.048 337.403,159.144 334.77,159.939 330.708,158.798 328.618,156.895 325.282,157.053 323.218,155.822 
		323.121,139.796 322.357,137.83 	"/>
	<polygon fill="none" stroke="#000000" points="301.642,137.492 300.973,137.525 300.26,178.289 272.183,177.636 272.275,179.632 
		285.542,191.685 287.927,199.585 298.91,205.736 300.846,204.305 303.917,198.814 305.883,198.052 309.246,198.558 312.61,199.064 
		317.466,202.838 319.719,208.074 323.34,213.912 328.257,219.017 329.121,222.98 333.434,229.451 338.889,231.861 343.556,231.634 
		344.984,233.57 346.982,233.472 346.79,229.472 345.042,220.878 346.782,215.453 348.592,211.359 352.427,207.837 356.398,206.98 
		360.39,206.785 361.628,204.726 364.168,201.933 363.336,198.631 365.273,197.203 366.738,199.806 368.699,199.042 
		372.604,196.854 373.203,195.488 373.711,192.125 372.881,188.824 374.723,185.396 371.835,180.867 369.614,176.294 
		368.942,162.304 365.609,162.462 360.816,160.021 356.821,160.214 353.519,161.041 350.884,161.837 349.49,160.567 
		344.191,161.489 339.496,161.048 337.403,159.144 334.77,159.939 330.708,158.798 328.618,156.895 325.282,157.053 
		323.218,155.822 323.121,139.796 322.357,137.83 	"/>
	<polygon fill="#FFFFFF" points="257.256,130.942 253.687,181.863 259.718,182.24 260.889,178.846 262.857,178.087 272.275,179.632 
		272.183,177.636 300.26,178.289 300.973,137.525 301.445,133.492 281.37,132.453 	"/>
	<polygon fill="none" stroke="#000000" points="257.256,130.942 253.687,181.863 259.718,182.24 260.889,178.846 262.857,178.087 
		272.275,179.632 272.183,177.636 300.26,178.289 300.973,137.525 301.445,133.492 281.37,132.453 	"/>
	<polygon fill="#60BA46" points="260.857,94.709 257.256,130.942 301.445,133.492 308.778,133.142 308.797,105.763 308.381,97.101 
		294.99,96.408 279.609,95.812 	"/>
	<polygon fill="none" stroke="#000000" points="260.857,94.709 257.256,130.942 301.445,133.492 308.778,133.142 308.797,105.763 
		308.381,97.101 294.99,96.408 279.609,95.812 	"/>
	<polygon fill="none" stroke="#000000" points="246.736,92.714 260.857,94.709 294.99,96.408 295.494,79.021 296.625,60.936 
		276.545,59.9 251.672,56.42 	"/>
	<polygon fill="#60BA46" points="297.533,24.166 297.603,39.523 296.88,52.247 296.625,60.936 276.545,59.9 251.672,56.42 
		251.162,59.781 249.132,59.214 247.164,59.973 239.169,60.36 237.68,57.09 236.315,56.491 234.571,47.893 232.566,47.991 
		231.969,49.35 230.534,47.419 231.042,44.053 233.452,38.596 229.323,36.124 229.132,32.126 226.401,30.922 225.483,25.623 
		225.257,20.961 226.53,19.565 227.003,15.533 238.457,17.652 262.667,21.168 281.451,22.937 	"/>
	<polygon fill="none" stroke="#000000" points="297.533,24.166 297.603,39.523 296.88,52.247 296.625,60.936 276.545,59.9 
		251.672,56.42 251.162,59.781 249.132,59.214 247.164,59.973 239.169,60.36 237.68,57.09 236.315,56.491 234.571,47.893 
		232.566,47.991 231.969,49.35 230.534,47.419 231.042,44.053 233.452,38.596 229.323,36.124 229.132,32.126 226.401,30.922 
		225.483,25.623 225.257,20.961 226.53,19.565 227.003,15.533 238.457,17.652 262.667,21.168 281.451,22.937 	"/>
	<polygon fill="#60BA46" points="227.003,15.533 221.607,14.459 216.194,40.759 218.321,43.331 217.812,46.693 210.873,55.041 
		212.298,56.975 213.094,59.608 211.858,61.668 211.347,65.034 209.264,77.155 228.802,80.89 247.651,83.992 251.162,59.781 
		249.132,59.214 247.164,59.973 239.169,60.36 237.68,57.09 236.315,56.491 234.571,47.893 232.566,47.991 231.969,49.35 
		230.534,47.419 231.042,44.053 233.452,38.596 229.323,36.124 229.132,32.126 226.401,30.922 225.483,25.623 225.257,20.961 
		226.53,19.565 	"/>
	<polygon fill="none" stroke="#000000" points="227.003,15.533 221.607,14.459 216.194,40.759 218.321,43.331 217.812,46.693 
		210.873,55.041 212.298,56.975 213.094,59.608 211.858,61.668 211.347,65.034 209.264,77.155 228.802,80.89 247.651,83.992 
		251.162,59.781 249.132,59.214 247.164,59.973 239.169,60.36 237.68,57.09 236.315,56.491 234.571,47.893 232.566,47.991 
		231.969,49.35 230.534,47.419 231.042,44.053 233.452,38.596 229.323,36.124 229.132,32.126 226.401,30.922 225.483,25.623 
		225.257,20.961 226.53,19.565 	"/>
	<polygon fill="#60BA46" points="228.802,80.89 221.622,125.974 257.256,130.942 260.857,94.709 246.736,92.714 247.651,83.992 	"/>
	<polygon fill="none" stroke="#000000" points="228.802,80.89 221.622,125.974 257.256,130.942 260.857,94.709 246.736,92.714 
		247.651,83.992 	"/>
	<polygon fill="#FFFFFF" points="257.256,130.942 253.687,181.863 237.571,179.968 210.158,165.257 210.753,163.894 
		213.389,163.097 213.293,161.097 211.928,160.496 211.797,157.832 214.34,155.039 214.208,152.375 217.411,149.55 215.917,146.283 
		214.43,143.015 215.661,140.952 214.615,132.991 217.276,132.865 218.708,134.796 221.339,134.003 221.179,130.673 
		221.622,125.974 	"/>
	<polygon fill="none" stroke="#000000" points="257.256,130.942 253.687,181.863 237.571,179.968 210.158,165.257 210.753,163.894 
		213.389,163.097 213.293,161.097 211.928,160.496 211.797,157.832 214.34,155.039 214.208,152.375 217.411,149.55 215.917,146.283 
		214.43,143.015 215.661,140.952 214.615,132.991 217.276,132.865 218.708,134.796 221.339,134.003 221.179,130.673 
		221.622,125.974 	"/>
	<polygon fill="#FFFFFF" points="210.753,163.894 192.642,162.089 191.688,156.126 187.367,149.657 185.304,148.421 
		185.207,146.421 183.842,145.82 179.847,146.009 179.054,143.38 176.292,141.509 172.896,140.335 170.103,137.798 170.01,135.8 
		171.277,134.404 169.784,131.136 163.847,118.734 164.448,117.371 165.781,117.31 166.351,115.276 162.891,112.772 
		162.667,108.105 163.271,106.741 165.333,107.977 165.903,105.945 165.144,103.979 163.173,104.746 161.11,103.505 160.889,98.84 
		158.066,95.641 157.74,88.977 159.013,87.581 158.818,83.583 157.421,82.313 157.229,78.318 159.166,76.89 161.604,72.099 
		161.92,64.737 189.046,73.449 182.905,98.456 214.43,143.015 217.411,149.55 214.208,152.375 214.34,155.039 211.797,157.832 
		211.928,160.496 213.293,161.097 213.389,163.097 	"/>
	<polygon fill="none" stroke="#000000" points="210.753,163.894 192.642,162.089 191.688,156.126 187.367,149.657 185.304,148.421 
		185.207,146.421 183.842,145.82 179.847,146.009 179.054,143.38 176.292,141.509 172.896,140.335 170.103,137.798 170.01,135.8 
		171.277,134.404 169.784,131.136 163.847,118.734 164.448,117.371 165.781,117.31 166.351,115.276 162.891,112.772 
		162.667,108.105 163.271,106.741 165.333,107.977 165.903,105.945 165.144,103.979 163.173,104.746 161.11,103.505 160.889,98.84 
		158.066,95.641 157.74,88.977 159.013,87.581 158.818,83.583 157.421,82.313 157.229,78.318 159.166,76.89 161.604,72.099 
		161.92,64.737 189.046,73.449 182.905,98.456 214.43,143.015 217.411,149.55 214.208,152.375 214.34,155.039 211.797,157.832 
		211.928,160.496 213.293,161.097 213.389,163.097 	"/>
	<polygon fill="#60BA46" points="182.905,98.456 214.43,143.015 215.661,140.952 214.615,132.991 217.276,132.865 218.708,134.796 
		221.339,134.003 221.179,130.673 221.622,125.974 228.802,80.89 209.264,77.155 189.046,73.449 	"/>
	<polygon fill="none" stroke="#000000" points="182.905,98.456 214.43,143.015 215.661,140.952 214.615,132.991 217.276,132.865 
		218.708,134.796 221.339,134.003 221.179,130.673 221.622,125.974 228.802,80.89 209.264,77.155 189.046,73.449 	"/>
	<polygon fill="#60BA46" points="163.251,64.673 190.377,73.386 210.59,77.089 213.189,61.608 214.422,59.544 213.631,56.912 
		212.204,54.973 219.145,46.627 219.654,43.266 217.522,40.696 213.499,40.219 206.042,37.91 198.043,38.292 191.35,37.949 
		188.62,36.745 183.294,36.998 181.229,35.764 181.83,34.399 182.404,32.37 180.307,30.465 179.574,29.166 175.547,28.689 
		173.866,35.45 167.881,49.759 162.93,58.009 163.059,60.676 163.159,62.673 	"/>
	<polygon fill="none" stroke="#000000" points="163.251,64.673 190.377,73.386 210.59,77.089 213.189,61.608 214.422,59.544 
		213.631,56.912 212.204,54.973 219.145,46.627 219.654,43.266 217.522,40.696 213.499,40.219 206.042,37.91 198.043,38.292 
		191.35,37.949 188.62,36.745 183.294,36.998 181.229,35.764 181.83,34.399 182.404,32.37 180.307,30.465 179.574,29.166 
		175.547,28.689 173.866,35.45 167.881,49.759 162.93,58.009 163.059,60.676 163.159,62.673 	"/>
	<path fill="#60BA46" d="M174.195,28.757l1.158-4.063l-0.253-5.329l0.343-6.695l-0.156-3.331c0,0,1.268-1.396,1.93-1.431
		c0.671-0.032,6.954,5.676,6.954,5.676l1.462,2.601l-1.871,2.761l-0.506,3.363l2.693,0.54l1.141-4.061l1.905-2.097l-0.888-4.63
		l1.199-2.73l-0.856-3.968l10.185,3.521l22.972,5.575l-5.413,26.3l-4.031-0.472l-7.455-2.314l-7.993,0.382l-6.698-0.346
		l-2.729-1.205l-5.331,0.258l-2.063-1.236l1.177-3.394l-2.097-1.902l-0.728-1.299L174.195,28.757z"/>
	<path fill="none" stroke="#000000" d="M174.195,28.757l1.158-4.063l-0.253-5.329l0.343-6.695l-0.156-3.331
		c0,0,1.268-1.396,1.93-1.431c0.671-0.032,6.954,5.676,6.954,5.676l1.462,2.601l-1.871,2.761l-0.506,3.363l2.693,0.54l1.141-4.061
		l1.905-2.097l-0.888-4.63l1.199-2.73l-0.856-3.968l10.185,3.521l22.972,5.575l-5.413,26.3l-4.031-0.472l-7.455-2.314l-7.993,0.382
		l-6.698-0.346l-2.729-1.205l-5.331,0.258l-2.063-1.236l1.177-3.394l-2.097-1.902l-0.728-1.299L174.195,28.757z"/>
	<polyline fill="#FFFFFF" points="90.85,99.991 92.069,112.449 92.694,127.976 93.027,135.285 96.091,135.541 99.446,137.697 
		100.662,139.521 101.29,139.521 102.506,137.365 104.351,138.316 104.351,139.193 102.84,139.521 101.879,140.144 102.21,141.017 
		102.84,141.348 104.057,140.725 104.942,139.816 105.898,139.193 107.745,140.144 108.333,141.642 109.589,142.552 
		111.395,143.796 112.652,145.586 112.908,146.828 116.304,147.412 116.93,151.978 115.71,151.357 113.869,148.913 112.908,148.913 
		112.321,147.085 111.103,146.828 110.806,146.5 110.18,144.38 109.258,143.47 108.003,142.844 107.117,144.673 107.412,145.876 
		108.633,146.207 109.589,146.828 108.333,148.913 107.412,148.654 106.528,147.085 104.942,145.586 104.684,143.47 
		103.137,141.968 100.662,141.017 99.446,140.144 97.602,138.898 93.653,137.365 90.85,137.074 87.495,137.074 86.278,136.781 
		84.101,133.713 82.624,133.129 80.785,133.458 80.785,134.662 81.04,136.488 80.451,136.781 78.604,136.781 76.171,138.609 
		74.918,139.521 73.403,139.193 73.702,137.697 75.25,136.781 75.25,134.955 75.543,132.837 74.918,132.506 72.814,134.955 
		70.97,136.781 69.753,138.609 69.422,139.193 70.641,139.816 70.342,140.725 67.906,142.552 66.067,144.38 63.006,146.207 
		59.943,147.412 57.474,148.654 55.627,149.531 54.705,148.035 55.627,146.828 57.474,145.876 60.237,144.051 61.454,142.552 
		62.045,140.725 62.378,139.521 60.829,139.193 61.16,137.986 59.615,138.316 58.727,137.365 57.474,137.697 56.551,137.986 
		55.627,139.816 54.08,137.365 55.036,135.285 54.08,132.214 52.271,133.129 50.758,130.097 50.758,127.356 49.505,124.617 
		52.271,123.996 51.975,122.166 53.486,120.959 59.313,121.582 60.237,120.959 60.237,117.015 59.943,116.432 57.14,116.687 
		56.882,115.188 54.705,116.432 54.705,114.898 51.644,114.278 51.975,112.777 52.858,111.574 51.644,110.003 53.486,109.748 
		54.705,109.125 56.252,109.125 57.14,108.21 58.099,109.125 57.474,110.329 57.14,111.574 59.313,111.247 61.454,110.624 
		62.673,108.796 61.16,108.502 58.984,105.473 57.474,103.061 57.474,100.904 58.984,100.283 60.829,99.405 62.378,99.991 
		64.848,95.755 67.576,96.047 70.011,95.427 72.188,94.547 74.33,96.047 76.468,96.96 79.823,97.872 88.123,99.699 89.967,100.283 
		90.594,102.108 90.85,99.991 	"/>
	<polyline fill="none" stroke="#000000" points="90.85,99.991 92.069,112.449 92.694,127.976 93.027,135.285 96.091,135.541 
		99.446,137.697 100.662,139.521 101.29,139.521 102.506,137.365 104.351,138.316 104.351,139.193 102.84,139.521 101.879,140.144 
		102.21,141.017 102.84,141.348 104.057,140.725 104.942,139.816 105.898,139.193 107.745,140.144 108.333,141.642 109.589,142.552 
		111.395,143.796 112.652,145.586 112.908,146.828 116.304,147.412 116.93,151.978 115.71,151.357 113.869,148.913 112.908,148.913 
		112.321,147.085 111.103,146.828 110.806,146.5 110.18,144.38 109.258,143.47 108.003,142.844 107.117,144.673 107.412,145.876 
		108.633,146.207 109.589,146.828 108.333,148.913 107.412,148.654 106.528,147.085 104.942,145.586 104.684,143.47 
		103.137,141.968 100.662,141.017 99.446,140.144 97.602,138.898 93.653,137.365 90.85,137.074 87.495,137.074 86.278,136.781 
		84.101,133.713 82.624,133.129 80.785,133.458 80.785,134.662 81.04,136.488 80.451,136.781 78.604,136.781 76.171,138.609 
		74.918,139.521 73.403,139.193 73.702,137.697 75.25,136.781 75.25,134.955 75.543,132.837 74.918,132.506 72.814,134.955 
		70.97,136.781 69.753,138.609 69.422,139.193 70.641,139.816 70.342,140.725 67.906,142.552 66.067,144.38 63.006,146.207 
		59.943,147.412 57.474,148.654 55.627,149.531 54.705,148.035 55.627,146.828 57.474,145.876 60.237,144.051 61.454,142.552 
		62.045,140.725 62.378,139.521 60.829,139.193 61.16,137.986 59.615,138.316 58.727,137.365 57.474,137.697 56.551,137.986 
		55.627,139.816 54.08,137.365 55.036,135.285 54.08,132.214 52.271,133.129 50.758,130.097 50.758,127.356 49.505,124.617 
		52.271,123.996 51.975,122.166 53.486,120.959 59.313,121.582 60.237,120.959 60.237,117.015 59.943,116.432 57.14,116.687 
		56.882,115.188 54.705,116.432 54.705,114.898 51.644,114.278 51.975,112.777 52.858,111.574 51.644,110.003 53.486,109.748 
		54.705,109.125 56.252,109.125 57.14,108.21 58.099,109.125 57.474,110.329 57.14,111.574 59.313,111.247 61.454,110.624 
		62.673,108.796 61.16,108.502 58.984,105.473 57.474,103.061 57.474,100.904 58.984,100.283 60.829,99.405 62.378,99.991 
		64.848,95.755 67.576,96.047 70.011,95.427 72.188,94.547 74.33,96.047 76.468,96.96 79.823,97.872 88.123,99.699 89.967,100.283 
		90.594,102.108 90.85,99.991 	"/>
	<polyline fill="#FFFFFF" points="37.126,153.812 38.53,151.978 37.849,149.792 36.403,150.494 35.381,153.073 33.596,153.073 	"/>
	<polyline fill="none" stroke="#000000" points="37.126,153.812 38.53,151.978 37.849,149.792 36.403,150.494 35.381,153.073 
		33.596,153.073 	"/>
	<pattern  id="SVGID_1_" xlink:href="#Unnamed_Pattern" patternTransform="matrix(0.7158 0 0 -0.7158 -2027.1572 -1569.7964)">
	</pattern>
	<line fill="url(#SVGID_1_)" x1="46.698" y1="149.445" x2="45.294" y2="150.494"/>
	<line fill="none" stroke="#000000" x1="46.698" y1="149.445" x2="45.294" y2="150.494"/>
	<polyline fill="#FFFFFF" points="76.386,140.71 76.386,143.638 74.602,145.078 71.413,145.82 70.729,144.335 72.132,143.244 
		74.259,142.5 74.94,140.316 76.003,140.316 	"/>
	<polyline fill="none" stroke="#000000" points="76.386,140.71 76.386,143.638 74.602,145.078 71.413,145.82 70.729,144.335 
		72.132,143.244 74.259,142.5 74.94,140.316 76.003,140.316 	"/>
	<pattern  id="SVGID_2_" xlink:href="#Unnamed_Pattern_2" patternTransform="matrix(0.7158 0 0 -0.7158 -2027.1572 -1569.7964)">
	</pattern>
	<line fill="url(#SVGID_2_)" x1="2.85" y1="135.562" x2="0.382" y2="132.635"/>
	<line fill="none" stroke="#000000" x1="2.85" y1="135.562" x2="0.382" y2="132.635"/>
	<pattern  id="SVGID_3_" xlink:href="#Unnamed_Pattern_3" patternTransform="matrix(0.7158 0 0 -0.7158 -2027.1572 -1569.7964)">
	</pattern>
	<line fill="url(#SVGID_3_)" x1="23.01" y1="152.992" x2="22.287" y2="153.384"/>
	<line fill="none" stroke="#000000" x1="23.01" y1="152.992" x2="22.287" y2="153.384"/>
	<pattern  id="SVGID_4_" xlink:href="#Unnamed_Pattern_4" patternTransform="matrix(0.7158 0 0 -0.7158 -2027.1572 -1569.7964)">
	</pattern>
	<line fill="url(#SVGID_4_)" x1="17.353" y1="150.502" x2="14.844" y2="148.316"/>
	<line fill="none" stroke="#000000" x1="17.353" y1="150.502" x2="14.844" y2="148.316"/>
	<pattern  id="SVGID_5_" xlink:href="#Unnamed_Pattern_5" patternTransform="matrix(0.7158 0 0 -0.7158 -2027.1572 -1569.7964)">
	</pattern>
	<polyline fill="url(#SVGID_5_)" points="10.973,145.74 8.504,144.299 8.844,144.299 	"/>
	<polyline fill="none" stroke="#000000" points="10.973,145.74 8.504,144.299 8.844,144.299 	"/>
	<pattern  id="SVGID_6_" xlink:href="#Unnamed_Pattern_6" patternTransform="matrix(0.7158 0 0 -0.7158 -2027.1572 -1569.7964)">
	</pattern>
	<line fill="url(#SVGID_6_)" x1="11.693" y1="149.015" x2="10.591" y2="147.925"/>
	<line fill="none" stroke="#000000" x1="11.693" y1="149.015" x2="10.591" y2="147.925"/>
	<polyline fill="#FFFFFF" points="139.292,180.802 140.858,178.902 139.292,176.427 135.311,176.427 134.932,178.902 
		138.863,180.287 139.292,180.802 	"/>
	<polyline fill="none" stroke="#000000" points="139.292,180.802 140.858,178.902 139.292,176.427 135.311,176.427 134.932,178.902 
		138.863,180.287 139.292,180.802 	"/>
	<polyline fill="#FFFFFF" points="163.696,189.437 159.336,187.481 155.784,185.583 156.966,189.841 159.336,193.24 
		160.898,196.116 163.696,194.218 164.032,191.339 163.271,190.359 163.696,189.437 	"/>
	<polyline fill="none" stroke="#000000" points="163.696,189.437 159.336,187.481 155.784,185.583 156.966,189.841 159.336,193.24 
		160.898,196.116 163.696,194.218 164.032,191.339 163.271,190.359 163.696,189.437 	"/>
	<polyline fill="#FFFFFF" points="170.757,201.875 174.693,202.851 175.876,205.212 178.2,208.035 180.993,209.529 180.567,212.87 
		176.635,215.285 174.268,217.65 171.562,217.189 170.331,220.064 167.964,220.523 166.02,216.667 165.643,209.992 164.456,207.634 
		166.02,202.851 167.964,200.894 170.757,201.875 	"/>
	<polyline fill="none" stroke="#000000" points="170.757,201.875 174.693,202.851 175.876,205.212 178.2,208.035 180.993,209.529 
		180.567,212.87 176.635,215.285 174.268,217.65 171.562,217.189 170.331,220.064 167.964,220.523 166.02,216.667 165.643,209.992 
		164.456,207.634 166.02,202.851 167.964,200.894 170.757,201.875 	"/>
	<pattern  id="SVGID_7_" xlink:href="#Unnamed_Pattern_7" patternTransform="matrix(0.7158 0 0 -0.7158 -2027.1572 -1569.7964)">
	</pattern>
	<line fill="url(#SVGID_7_)" x1="104.981" y1="174.531" x2="104.602" y2="175.046"/>
	<line fill="none" stroke="#000000" x1="104.981" y1="174.531" x2="104.602" y2="175.046"/>
	<polyline fill="#FFFFFF" points="119.957,172.169 121.944,169.75 121.141,167.849 119.148,166.871 115.217,167.849 113.655,170.73 
		116.448,171.189 116.781,172.627 119.577,172.169 121.521,172.169 119.957,172.169 	"/>
	<polyline fill="none" stroke="#000000" points="119.957,172.169 121.944,169.75 121.141,167.849 119.148,166.871 115.217,167.849 
		113.655,170.73 116.448,171.189 116.781,172.627 119.577,172.169 121.521,172.169 119.957,172.169 	"/>
	<pattern  id="SVGID_8_" xlink:href="#Unnamed_Pattern_8" patternTransform="matrix(0.7158 0 0 -0.7158 -2027.1572 -1569.7964)">
	</pattern>
	<line fill="url(#SVGID_8_)" x1="111.283" y1="171.649" x2="108.915" y2="173.549"/>
	<line fill="none" stroke="#000000" x1="111.283" y1="171.649" x2="108.915" y2="173.549"/>
	<pattern  id="SVGID_9_" xlink:href="#Unnamed_Pattern_9" patternTransform="matrix(0.7158 0 0 -0.7158 -2027.1572 -1569.7964)">
	</pattern>
	<line fill="url(#SVGID_9_)" x1="153.794" y1="186.558" x2="149.527" y2="183.681"/>
	<line fill="none" stroke="#000000" x1="153.794" y1="186.558" x2="149.527" y2="183.681"/>
</g>
</svg>
