<?xml version="1.0" encoding="utf-8"?>
<!-- Generator: Adobe Illustrator 16.0.0, SVG Export Plug-In . SVG Version: 6.00 Build 0)  -->
<!DOCTYPE svg PUBLIC "-//W3C//DTD SVG 1.1//EN" "http://www.w3.org/Graphics/SVG/1.1/DTD/svg11.dtd">
<svg version="1.1" id="Layer_1" xmlns="http://www.w3.org/2000/svg" xmlns:xlink="http://www.w3.org/1999/xlink" x="0px" y="0px"
	 width="98.148px" height="98.148px" viewBox="0 0 98.148 98.148" enable-background="new 0 0 98.148 98.148" xml:space="preserve">
<g id="N3F9Xj.tif_1_">
	<g>
		<path fill-rule="evenodd" clip-rule="evenodd" fill="#0B183B" d="M49.148,0c27.029,0.049,49.007,22.063,49,49.084
			c-0.006,27.117-22.182,49.197-49.274,49.063C21.834,98.015-0.091,75.938,0,48.937C0.092,21.901,22.138-0.05,49.148,0z
			 M90.14,49.113C90.188,26.48,71.802,8.06,49.114,8.009C26.486,7.96,8.057,26.355,8.01,49.037
			C7.963,71.674,26.348,90.091,49.038,90.138C71.678,90.187,90.089,71.807,90.14,49.113z"/>
		<path fill-rule="evenodd" clip-rule="evenodd" fill="#0B183B" d="M51.166,49.325c6.265-4.324,12.043-8.331,17.844-12.303
			c1.643-1.124,3.342-2.859,5.311-0.604c1.248,1.43,0.424,2.992-2.43,4.967c-6.778,4.687-13.522,9.43-20.377,14.004
			c-1.131,0.756-2.978,1.361-4.077,0.941c-0.83-0.314-1.38-2.374-1.393-3.664c-0.108-10.626-0.061-21.254-0.061-31.881
			c0-0.171,0.005-0.34,0-0.51c-0.057-1.896,0.377-3.532,2.675-3.495c2.143,0.035,2.52,1.604,2.514,3.396
			c-0.019,5.695-0.006,11.392-0.006,17.089C51.167,41.081,51.166,44.897,51.166,49.325z"/>
	</g>
</g>
</svg>
