<?xml version="1.0" encoding="utf-8"?>
<!-- Generator: Adobe Illustrator 16.0.0, SVG Export Plug-In . SVG Version: 6.00 Build 0)  -->
<!DOCTYPE svg PUBLIC "-//W3C//DTD SVG 1.1//EN" "http://www.w3.org/Graphics/SVG/1.1/DTD/svg11.dtd">
<svg version="1.1" id="Layer_1" xmlns="http://www.w3.org/2000/svg" xmlns:xlink="http://www.w3.org/1999/xlink" x="0px" y="0px"
	 width="341.055px" height="162.27px" viewBox="0 0 341.055 162.27" enable-background="new 0 0 341.055 162.27"
	 xml:space="preserve">
<g>
	<g>
		<g>
			<rect x="58.059" y="43.223" fill="#60B546" width="224.934" height="9.505"/>
			<g>
				<path fill="#60B546" d="M299.989,49.468c0-21.232-7.606-21.232-16.991-21.232c-9.389,0-16.999,0-16.999,21.232
					c0,11.727,11.719,21.231,16.999,21.231C288.41,70.699,299.989,61.194,299.989,49.468z"/>
				<path fill="#60B546" d="M287.574,36.456c0,2.525-2.049,4.577-4.582,4.577l0,0c-2.526,0-4.574-2.052-4.574-4.577V4.573
					c0-2.526,2.048-3.396,4.574-3.396l0,0c2.533,0,4.582,0.869,4.582,3.396V36.456z"/>
			</g>
			<g>
				<g>
					<g>
						<g>
							<path id="path2301_1_" fill="#60B546" d="M180.968,1.395h12.175c6.628,0,10.157,3.622,11.766,7.859l8.619,22.238
								c3.421,0.43,9.476,4.456,9.476,12.049v28.29h-8.374v9.048c0,11.122-15.767,10.989-15.767,0v-9.048h-28.329h-0.017h0.017
								h-0.017h-28.327v9.048c0,10.989-15.753,11.122-15.753,0v-9.048h-8.39v-28.29c0-7.593,6.056-11.619,9.462-12.049l8.625-22.238
								c1.625-4.237,5.14-7.859,11.767-7.859h12.312H180.968z"/>
							<path id="path2315_1_" fill="#FFFFFF" d="M170.517,31.277h-0.014h-34.067l6.497-17.514c0.812-2.467,2.02-4.237,4.854-4.262
								h22.716h0.014h0.017h22.71c2.834,0.024,4.072,1.795,4.867,4.262l6.49,17.514h-34.067H170.517z"/>
							<path id="path2321_1_" fill="#FFFFFF" d="M134.553,54.79c-4.01,0-7.271-3.368-7.271-7.502c0-4.147,3.262-7.5,7.271-7.5
								c4.028,0,7.292,3.353,7.292,7.5C141.845,51.422,138.581,54.79,134.553,54.79z"/>
							<path id="path2327_1_" fill="#FFFFFF" d="M206.499,54.79c4.008,0,7.258-3.368,7.258-7.502c0-4.147-3.25-7.5-7.258-7.5
								c-4.03,0-7.294,3.353-7.294,7.5C199.205,51.422,202.469,54.79,206.499,54.79z"/>
						</g>
					</g>
				</g>
			</g>
		</g>
		<g>
			<polygon fill-rule="evenodd" clip-rule="evenodd" fill="#10153C" points="224.938,3.289 263.517,0 282.997,3.289 			"/>
			<polygon fill-rule="evenodd" clip-rule="evenodd" fill="#10153C" points="224.938,3.289 263.517,6.579 282.997,3.289 			"/>
			<polygon fill-rule="evenodd" clip-rule="evenodd" fill="#10153C" points="341.055,3.289 302.476,0 282.997,3.289 			"/>
			<polygon fill-rule="evenodd" clip-rule="evenodd" fill="#10153C" points="341.055,3.289 302.476,6.579 282.997,3.289 			"/>
			<path fill-rule="evenodd" clip-rule="evenodd" fill="#10153C" d="M287.641,3.938c0,1.727-2.054,2.078-4.584,2.078
				c-2.532,0-4.587-0.352-4.587-2.078c0-1.726,2.055-3.126,4.587-3.126C285.587,0.812,287.641,2.212,287.641,3.938z"/>
		</g>
		<g>
			<path fill="#60B546" d="M75.053,49.468c0-21.232-7.607-21.232-16.991-21.232c-9.39,0-17,0-17,21.232
				c0,11.727,11.719,21.231,17,21.231C63.474,70.699,75.053,61.194,75.053,49.468z"/>
			<path fill="#60B546" d="M62.637,36.456c0,2.525-2.049,4.577-4.581,4.577l0,0c-2.527,0-4.575-2.052-4.575-4.577V4.573
				c0-2.526,2.048-3.396,4.575-3.396l0,0c2.532,0,4.581,0.869,4.581,3.396V36.456z"/>
		</g>
		<g>
			<polygon fill-rule="evenodd" clip-rule="evenodd" fill="#10153C" points="0,3.289 38.579,0 58.06,3.289 			"/>
			<polygon fill-rule="evenodd" clip-rule="evenodd" fill="#10153C" points="0,3.289 38.579,6.579 58.06,3.289 			"/>
			<polygon fill-rule="evenodd" clip-rule="evenodd" fill="#10153C" points="116.117,3.289 77.538,0 58.06,3.289 			"/>
			<polygon fill-rule="evenodd" clip-rule="evenodd" fill="#10153C" points="116.117,3.289 77.538,6.579 58.06,3.289 			"/>
			<path fill-rule="evenodd" clip-rule="evenodd" fill="#10153C" d="M62.703,3.938c0,1.727-2.054,2.078-4.583,2.078
				c-2.533,0-4.588-0.352-4.588-2.078c0-1.726,2.055-3.126,4.588-3.126C60.649,0.812,62.703,2.212,62.703,3.938z"/>
		</g>
	</g>
</g>
<ellipse fill="#10153C" cx="170.526" cy="146.27" rx="76.252" ry="16"/>
</svg>
