<?xml version="1.0" encoding="utf-8"?>
<!-- Generator: Adobe Illustrator 16.0.0, SVG Export Plug-In . SVG Version: 6.00 Build 0)  -->
<!DOCTYPE svg PUBLIC "-//W3C//DTD SVG 1.1//EN" "http://www.w3.org/Graphics/SVG/1.1/DTD/svg11.dtd">
<svg version="1.1" id="Layer_1" xmlns="http://www.w3.org/2000/svg" xmlns:xlink="http://www.w3.org/1999/xlink" x="0px" y="0px"
	 width="48.275px" height="94.902px" viewBox="0 0 48.275 94.902" enable-background="new 0 0 48.275 94.902" xml:space="preserve">
<g>
	<g id="soTfT0.tif">
		<g>
			<path fill-rule="evenodd" clip-rule="evenodd" fill="#10153C" d="M35.301,51.035c0.319,4.09,0.619,8.059,0.94,12.025
				c0.697,8.642,1.425,17.282,2.101,25.925c0.264,3.389-1.675,5.766-4.701,5.908c-2.847,0.134-4.939-2.061-5.207-5.359
				c-0.93-11.482-1.885-22.962-2.835-34.443c-0.028-0.347-0.102-0.691-0.148-1.004c-2.702-0.424-2.66-0.42-2.855,2.006
				c-0.897,11.18-1.793,22.361-2.752,33.534c-0.3,3.483-2.552,5.552-5.444,5.245c-2.991-0.316-4.73-2.704-4.448-6.165
				c1.01-12.328,2.03-24.653,3.043-36.981c0.016-0.18,0.002-0.358,0.002-0.731c-1.777,1.101-3.516,1.581-5.076-0.087
				c-1.182-1.266-1.042-2.677,0.476-5.178c-2.188-2.553-4.416-5.172-6.662-7.772c-2.169-2.512-2.267-3.327-0.491-6.095
				c2.471-3.85,5.15-7.593,9.253-9.82c1.786-0.97,3.963-1.564,5.997-1.667c4.719-0.239,9.466,0.095,14.187-0.124
				c4.147-0.193,7.568,1.243,10.284,4.118c2.396,2.538,4.447,5.415,6.54,8.224c1.212,1.627,0.938,3.274-0.402,4.801
				c-2.158,2.461-4.306,4.934-6.364,7.479c-0.327,0.402-0.417,1.338-0.177,1.796c0.819,1.561,1.022,3.009-0.296,4.335
				c-1.31,1.317-2.787,1.268-4.293,0.288C35.83,51.199,35.654,51.166,35.301,51.035z M13.18,41.346c0-4.694,0-8.966,0-13.236
				c-0.137-0.067-0.273-0.135-0.41-0.201c-1.881,2.146-3.761,4.293-5.631,6.431C9.238,36.773,11.08,38.911,13.18,41.346z
				 M35.566,27.873c-0.134,0.108-0.268,0.216-0.399,0.321c0,4.273,0,8.545,0,13.119c1.876-2.17,3.573-4.052,5.152-6.029
				c0.292-0.367,0.369-1.314,0.106-1.651"/>
			<path fill-rule="evenodd" clip-rule="evenodd" fill="#10153C" d="M33.197,9.014c0.023,4.881-3.983,8.996-8.821,9.061
				c-5.085,0.067-9.265-4.001-9.25-9.004c0.016-5.072,4.116-9.119,9.193-9.07C29.163,0.047,33.174,4.119,33.197,9.014z"/>
			<path fill-rule="evenodd" clip-rule="evenodd" fill="#FFFFFF" d="M24.546,49.141c-3.585-5.276,0,0-3.585-5.276
				c0.67-5.028,1.368-10.054,2.069-15.146c1.059,0,2.007,0,3.213,0c0.476,3.423,1.711,14.821,1.84,15.146
				C24.546,49.141,28.083,43.865,24.546,49.141z"/>
		</g>
	</g>
	<polygon fill-rule="evenodd" clip-rule="evenodd" fill="#FFFFFF" points="25.94,24.774 26.384,27.261 24.633,28.151 22.882,27.261 
		23.326,24.774 	"/>
</g>
</svg>
