<?xml version="1.0" encoding="utf-8"?>
<!-- Generator: Adobe Illustrator 16.0.0, SVG Export Plug-In . SVG Version: 6.00 Build 0)  -->
<!DOCTYPE svg PUBLIC "-//W3C//DTD SVG 1.1//EN" "http://www.w3.org/Graphics/SVG/1.1/DTD/svg11.dtd">
<svg version="1.1" id="Layer_1" xmlns="http://www.w3.org/2000/svg" xmlns:xlink="http://www.w3.org/1999/xlink" x="0px" y="0px"
	 width="283.517px" height="220.409px" viewBox="0 0 283.517 220.409" enable-background="new 0 0 283.517 220.409"
	 xml:space="preserve">
<g id="djGUxU.tif_18_">
	<g>
		<path fill-rule="evenodd" clip-rule="evenodd" fill="#61B546" d="M141.872,185.06c-1.725-6.514-2.964-11.828-4.54-17.037
			c-5.107-16.848-14.185-31.465-25.416-44.879c-7.563-9.031-14.928-18.23-22.412-27.333c-22.597-27.485-12.742-74.727,26.98-90.822
			c35.869-14.531,76.299,3.859,86.704,39.973c4.809,16.689,3.194,33.031-7.142,47.58c-10.117,14.24-20.902,28.003-30.986,42.269
			C154.52,149.714,147.45,166.372,141.872,185.06z M141.496,87.123c16.236,0.03,29.116-12.605,29.209-28.648
			c0.09-15.872-12.93-29.261-28.669-29.471c-16.02-0.217-29.435,13.09-29.435,29.192C112.602,74.326,125.358,87.097,141.496,87.123z
			"/>
		<path fill-rule="evenodd" clip-rule="evenodd" fill="#0F163A" d="M55.057,220.052c-3.743-23.051-14.489-41.098-28.652-57.438
			c-5.273-6.084-10.534-12.195-15.426-18.582C-8.653,118.403-1.16,83.007,27.104,67.238c13.233-7.385,27.238-8.889,42.277-5.666
			c0.66,15.112,5.438,28.832,14.486,40.739c6.359,8.374,13.368,16.292,20.541,23.997c3.279,3.52,3.182,6.447,0.695,9.875
			c-7.25,9.973-14.341,20.072-21.888,29.816c-11.946,15.42-20.931,32.309-26.581,50.975
			C56.443,217.597,56.04,218.151,55.057,220.052z M80.266,110.503c0.072-14.272-10.719-25.429-24.732-25.574
			c-13.68-0.143-25.788,11.998-25.608,25.679c0.181,13.453,11.626,24.744,25.162,24.82
			C69.352,135.507,80.195,124.774,80.266,110.503z"/>
		<path fill-rule="evenodd" clip-rule="evenodd" fill="#0F163A" d="M213.849,61.976c33.212-9.514,67.803,14.676,69.6,48.533
			c0.712,13.467-4.202,25.146-12.349,35.643c-6.249,8.057-12.576,16.055-18.629,24.252c-10.918,14.771-18.894,31.037-24.341,50.006
			c-0.865-3.445-1.476-5.682-1.989-7.936c-4.796-21.043-16.679-38.01-30.594-53.904c-5.643-6.441-10.609-13.477-16.047-20.1
			c-3.61-4.393-2.945-7.885,0.631-12.172c7.533-9.039,14.775-18.352,21.612-27.928C209.472,87.541,213.41,75.208,213.849,61.976z
			 M202.722,110.042c0.474,15.322,11.425,25.797,26.527,25.375c12.63-0.355,24.497-12.875,24.115-25.455
			c-0.409-13.675-12.394-25.31-25.782-25.029C214.029,85.219,202.321,97.045,202.722,110.042z"/>
	</g>
</g>
</svg>
