<?xml version="1.0" encoding="utf-8"?>
<!-- Generator: Adobe Illustrator 16.0.0, SVG Export Plug-In . SVG Version: 6.00 Build 0)  -->
<!DOCTYPE svg PUBLIC "-//W3C//DTD SVG 1.1//EN" "http://www.w3.org/Graphics/SVG/1.1/DTD/svg11.dtd">
<svg version="1.1" id="Layer_1" xmlns="http://www.w3.org/2000/svg" xmlns:xlink="http://www.w3.org/1999/xlink" x="0px" y="0px"
	 width="105.369px" height="105.368px" viewBox="0 0 105.369 105.368" enable-background="new 0 0 105.369 105.368"
	 xml:space="preserve">
<g>
	<path fill="#10153C" d="M52.686,4c9.456,0,19.992,19.995,19.992,48.687c0,28.688-10.536,48.682-19.992,48.682
		c-9.457,0-19.994-19.993-19.994-48.682C32.691,23.995,43.229,4,52.686,4 M52.686,0C39.434,0,28.691,23.589,28.691,52.687
		c0,29.094,10.742,52.682,23.994,52.682c13.25,0,23.992-23.588,23.992-52.682C76.678,23.589,65.936,0,52.686,0z"/>
	<path fill="#10153C" d="M79.581,15.738L79.581,15.738c3.324,0,5.857,0.848,7.53,2.521c6.687,6.687-0.001,28.276-20.289,48.564
		C52.968,80.677,36.861,89.629,25.788,89.629c-3.323,0-5.856-0.848-7.527-2.519c-3.311-3.311-3.372-10.118-0.169-18.679
		c3.635-9.717,10.899-20.33,20.454-29.884C52.4,24.692,68.508,15.738,79.581,15.738 M79.581,11.738
		c-11.73,0-28.79,8.906-43.864,23.981C15.143,56.292,6.061,80.567,15.432,89.938c2.505,2.505,6.075,3.69,10.356,3.69
		c11.729,0,28.791-8.904,43.863-23.978C90.227,49.075,99.309,24.8,89.939,15.431C87.434,12.925,83.862,11.738,79.581,11.738z"/>
	<path fill="#10153C" d="M25.79,11.738v4c11.072,0,27.178,8.952,41.033,22.807c20.287,20.288,26.974,41.878,20.287,48.564
		c-1.672,1.672-4.204,2.52-7.527,2.52c-11.074,0-27.182-8.953-41.037-22.808C18.259,46.535,11.573,24.946,18.26,18.259
		c1.672-1.672,4.205-2.521,7.529-2.521V11.738 M25.79,11.738c-4.281,0-7.853,1.187-10.358,3.692
		c-9.371,9.371-0.289,33.645,20.285,54.219c15.075,15.075,32.136,23.979,43.865,23.979c4.279,0,7.851-1.187,10.355-3.69
		c9.371-9.371,0.287-33.646-20.287-54.222C54.578,20.644,37.519,11.738,25.79,11.738z"/>
	<path fill="#10153C" d="M52.684,32.69c28.691,0,48.686,10.537,48.686,19.994S81.375,72.679,52.684,72.679
		C23.994,72.679,4,62.142,4,52.685S23.994,32.69,52.684,32.69 M52.684,28.69C23.586,28.69,0,39.435,0,52.685
		s23.586,23.994,52.684,23.994c29.1,0,52.686-10.744,52.686-23.994S81.783,28.69,52.684,28.69z"/>
	<path fill="#60B546" d="M55.627,39.772h3.426c1.865,0,2.855,1.018,3.312,2.209l2.424,6.258c0.961,0.122,2.666,1.256,2.666,3.393
		v7.959h-2.359v2.545c0,3.131-4.434,3.094-4.434,0v-2.545h-7.973h-0.004h0.004h-0.004h-7.973v2.545c0,3.094-4.434,3.131-4.434,0
		v-2.545H37.92v-7.959c0-2.137,1.703-3.271,2.662-3.393l2.43-6.258c0.455-1.191,1.445-2.209,3.309-2.209h3.467H55.627z"/>
	<path fill="#FFFFFF" d="M52.686,48.179h-0.004h-9.59l1.83-4.931c0.229-0.69,0.572-1.188,1.369-1.196h6.391h0.004h0.004h6.391
		c0.801,0.008,1.145,0.506,1.369,1.196l1.826,4.931h-9.586H52.686z"/>
	<path fill="#FFFFFF" d="M42.566,54.796c-1.131,0-2.047-0.947-2.047-2.109c0-1.168,0.916-2.112,2.047-2.112s2.049,0.944,2.049,2.112
		C44.615,53.849,43.697,54.796,42.566,54.796z"/>
	<path fill="#FFFFFF" d="M62.809,54.796c1.129,0,2.045-0.947,2.045-2.109c0-1.168-0.916-2.112-2.045-2.112
		c-1.133,0-2.051,0.944-2.051,2.112C60.758,53.849,61.676,54.796,62.809,54.796z"/>
</g>
</svg>
