<?xml version="1.0" encoding="utf-8"?>
<!-- Generator: Adobe Illustrator 16.0.0, SVG Export Plug-In . SVG Version: 6.00 Build 0)  -->
<!DOCTYPE svg PUBLIC "-//W3C//DTD SVG 1.1//EN" "http://www.w3.org/Graphics/SVG/1.1/DTD/svg11.dtd">
<svg version="1.1" id="Layer_1" xmlns="http://www.w3.org/2000/svg" xmlns:xlink="http://www.w3.org/1999/xlink" x="0px" y="0px"
	 width="83.76px" height="85.509px" viewBox="0 0 83.76 85.509" enable-background="new 0 0 83.76 85.509" xml:space="preserve">
<g>
	<g id="qgZPba.tif">
		<g>
			<path fill-rule="evenodd" clip-rule="evenodd" fill="#0B183B" d="M41.861,85.489C30.667,85.49,19.473,85.5,8.279,85.485
				c-4.961-0.005-8.231-3.111-8.243-8.096C-0.013,56.479-0.013,35.567,0.04,14.657c0.011-4.432,3.048-7.685,7.158-8.109
				c1.507-0.156,2.402,0.19,2.281,1.961c-0.101,1.472-0.02,2.954-0.018,4.431c0,4.75,1.461,6.388,6.135,6.878
				c4.898,0.514,7.686-1.949,7.686-6.79c0.001-1.554,0.075-3.114-0.018-4.663c-0.09-1.47,0.569-1.896,1.926-1.866
				c2.642,0.058,5.286,0.057,7.928,0.004c1.384-0.028,1.998,0.503,1.943,1.915c-0.06,1.552-0.01,3.109-0.009,4.663
				c0.004,4.738,2.201,6.871,6.977,6.769c4.866-0.105,6.876-2.144,6.878-6.974c0-6.364,0-6.364,6.481-6.364
				c5.387,0,5.387,0,5.387,5.418c0,0.233,0.002,0.466,0,0.699c-0.034,2.479-0.422,5.087,2.553,6.375
				c3.194,1.385,6.411,1.51,9.311-0.486c0.979-0.671,1.717-2.201,1.884-3.432c0.301-2.213,0.151-4.499,0.068-6.75
				c-0.055-1.488,0.602-1.896,1.961-1.804c3.727,0.257,6.857,3.3,7.136,7.086c0.102,1.394,0.061,2.797,0.061,4.195
				c0.002,19.591,0.053,39.18-0.075,58.77c-0.013,2.042-0.731,4.278-1.748,6.068c-1.205,2.124-3.486,2.87-6.015,2.858
				C64.561,85.462,53.21,85.489,41.861,85.489z M76.943,27.261c-0.662-0.089-1.035-0.182-1.408-0.182
				c-22.217-0.01-44.435,0.002-66.652-0.041c-1.612-0.003-1.955,0.69-1.951,2.099c0.026,15.692,0.032,31.384-0.007,47.076
				c-0.003,1.645,0.629,2.101,2.21,2.099c21.906-0.04,43.813-0.05,65.721,0.012c1.91,0.006,2.106-0.811,2.102-2.381
				c-0.042-13.75-0.018-27.5-0.014-41.25C76.943,32.291,76.943,29.89,76.943,27.261z"/>
			<path fill-rule="evenodd" clip-rule="evenodd" fill="#0B183B" d="M38.386,8.068c-0.002-1.631-0.032-3.264,0.006-4.894
				c0.048-2.253,1.097-3.157,3.6-3.175c2.505-0.016,3.619,0.883,3.649,3.108c0.046,3.494,0.055,6.989-0.006,10.482
				c-0.038,2.212-0.9,2.842-3.573,2.852c-2.665,0.011-3.585-0.651-3.659-2.784C38.338,11.797,38.39,9.931,38.386,8.068z"/>
			<path fill-rule="evenodd" clip-rule="evenodd" fill="#0B183B" d="M63.769,8.216c0-1.863,0.024-3.727-0.005-5.589
				c-0.038-2.402,1.813-2.535,3.381-2.563c1.651-0.031,3.706,0.019,3.779,2.434c0.118,3.801,0.108,7.608,0.012,11.408
				c-0.064,2.566-2.082,2.538-3.896,2.52c-1.72-0.02-3.33-0.283-3.278-2.62C63.801,11.941,63.768,10.077,63.769,8.216z"/>
			<path fill-rule="evenodd" clip-rule="evenodd" fill="#0B183B" d="M19.808,8.349c0,1.864,0,3.729,0,5.593
				c0,2.377-1.749,2.459-3.406,2.479c-1.725,0.021-3.688,0.036-3.756-2.397c-0.109-3.803-0.072-7.612-0.017-11.418
				c0.038-2.455,2.027-2.558,3.683-2.541s3.574,0.157,3.508,2.69C19.769,4.619,19.81,6.484,19.808,8.349z"/>
		</g>
	</g>
	<g>
		<path fill="#10153C" d="M30.636,35.647h22.776v3.469L37.74,71.239l-5.583-2.707l13.042-26.678H30.636V35.647z"/>
	</g>
</g>
</svg>
